<svg xmlns="http://www.w3.org/2000/svg" xmlns:xlink="http://www.w3.org/1999/xlink" width="1380" zoomAndPan="magnify" viewBox="0 0 1035 374.999991" height="500" preserveAspectRatio="xMidYMid meet" version="1.0"><defs><g/><clipPath id="f2031f45b9"><path d="M 872.757812 123.128906 L 961.257812 123.128906 L 961.257812 237.878906 L 872.757812 237.878906 Z M 872.757812 123.128906 " clip-rule="nonzero"/></clipPath></defs><path stroke-linecap="butt" transform="matrix(1.808678, 0, 0, 1.808678, 400.939263, 116.760242)" fill="none" stroke-linejoin="miter" d="M 15.775826 65.999892 C 15.261811 65.999892 14.834185 65.837912 14.497268 65.511793 C 14.171149 65.172716 14.00701 64.771007 14.00701 64.306666 L 14.00701 10.821045 C 14.00701 10.255197 14.181948 9.784377 14.533983 9.408584 C 14.896817 9.019833 15.361158 8.825458 15.927007 8.825458 L 38.897855 8.825458 C 46.912599 8.825458 52.98359 10.099697 57.108667 12.646014 C 61.248862 15.179373 63.31788 18.941616 63.31788 23.932743 C 63.31788 26.653998 62.570615 28.956267 61.078244 30.837388 C 59.598831 32.705551 56.983403 34.513242 53.234118 36.256141 C 53.132611 36.305815 53.082937 36.400843 53.082937 36.539066 C 53.082937 36.66433 53.132611 36.750719 53.234118 36.802552 C 57.39807 38.331638 60.350416 40.150128 62.095475 42.258021 C 63.838374 44.363754 64.708744 47.091488 64.708744 50.441224 C 64.708744 55.721754 62.6894 59.635178 58.650712 62.181496 C 54.624982 64.727813 48.454644 65.999892 40.139698 65.999892 Z M 40.139698 31.176465 C 41.932271 31.176465 43.368489 30.686207 44.448352 29.707851 C 45.526055 28.729495 46.065987 27.470375 46.065987 25.92833 C 46.065987 24.284779 45.443986 22.947908 44.202143 21.919878 C 42.973259 20.891849 41.437693 20.377834 39.593287 20.377834 L 33.271768 20.377834 C 32.606573 20.377834 32.144391 20.496619 31.880905 20.734189 C 31.628217 20.96096 31.502952 21.35619 31.502952 21.919878 L 31.502952 29.463802 C 31.502952 30.092283 31.60446 30.537186 31.805314 30.800673 C 32.016967 31.051201 32.349565 31.176465 32.800948 31.176465 Z M 39.744468 54.447516 C 41.850201 54.447516 43.506711 53.86007 44.711838 52.68086 C 45.927764 51.488691 46.536807 50.095667 46.536807 48.503949 C 46.536807 46.910071 45.940723 45.599117 44.748554 44.571088 C 43.569343 43.543058 42.033778 43.029043 40.139698 43.029043 L 33.271768 43.029043 C 32.606573 43.029043 32.144391 43.160786 31.880905 43.424273 C 31.628217 43.674801 31.502952 44.082989 31.502952 44.646678 L 31.502952 52.737013 C 31.502952 53.363333 31.60446 53.808237 31.805314 54.071723 C 32.016967 54.322252 32.349565 54.447516 32.800948 54.447516 Z M 70.943874 10.594274 C 70.943874 9.415063 71.434131 8.825458 72.412487 8.825458 L 114.028253 8.825458 C 114.943977 8.825458 115.401839 9.36539 115.401839 10.443093 L 115.326248 19.38004 C 115.326248 20.773064 114.661053 21.468496 113.330661 21.468496 L 90.210792 21.468496 C 89.031581 21.468496 88.441976 21.952274 88.441976 22.917672 L 88.441976 29.463802 C 88.441976 29.977817 88.56724 30.379526 88.817768 30.66893 C 89.081255 30.956173 89.420332 31.100875 89.83284 31.100875 L 103.698282 31.100875 C 104.778145 31.100875 105.318077 31.60841 105.318077 32.625642 L 105.318077 42.18243 C 105.318077 43.059279 104.853736 43.499863 103.925053 43.499863 L 89.664381 43.499863 C 89.312346 43.499863 89.018623 43.60569 88.781053 43.819503 C 88.554282 44.020357 88.441976 44.270886 88.441976 44.571088 L 88.441976 52.28563 C 88.441976 52.698138 88.504608 52.981062 88.629872 53.132243 C 88.755136 53.281264 88.999185 53.356854 89.364179 53.356854 L 114.404045 53.356854 C 115.533582 53.356854 116.097271 53.847112 116.097271 54.825468 L 116.097271 64.306666 C 116.097271 64.820681 115.939611 65.235349 115.62645 65.548509 C 115.326248 65.848711 114.868386 65.999892 114.252865 65.999892 L 73.032329 65.999892 C 72.254827 65.999892 71.710576 65.848711 71.397416 65.548509 C 71.095054 65.235349 70.943874 64.745091 70.943874 64.082055 Z M 121.947969 65.999892 C 121.533302 65.999892 121.194225 65.861669 120.930738 65.585224 C 120.68021 65.297981 120.554946 64.896272 120.554946 64.382257 C 120.554946 64.017263 120.637015 63.604755 120.798995 63.140414 L 139.443912 10.594274 C 139.69444 9.929078 139.977364 9.471216 140.290524 9.220688 C 140.603685 8.957201 141.093943 8.825458 141.756979 8.825458 L 156.939854 8.825458 C 157.555376 8.825458 158.106106 9.019833 158.596364 9.408584 C 159.084462 9.784377 159.455935 10.281114 159.706464 10.894476 L 178.2002 63.384463 C 178.299547 63.799131 178.349221 64.105812 178.349221 64.306666 C 178.349221 64.771007 178.249873 65.172716 178.049019 65.511793 C 177.848164 65.837912 177.541483 65.999892 177.126816 65.999892 L 162.01953 65.999892 C 161.142682 65.999892 160.576833 65.561467 160.326305 64.682459 L 157.315647 55.821102 C 157.166626 55.471226 157.021924 55.231496 156.883701 55.106232 C 156.758437 54.96801 156.520867 54.901058 156.168832 54.901058 L 139.819704 54.901058 C 139.206342 54.901058 138.821911 55.181823 138.672889 55.747671 L 135.51105 64.853077 C 135.19789 65.61762 134.584528 65.999892 133.668804 65.999892 Z M 152.311561 41.806638 C 152.877409 41.806638 153.158174 41.549631 153.158174 41.033456 C 153.158174 40.934109 153.1085 40.677101 153.009152 40.262434 L 148.380859 27.094583 C 148.279352 26.831096 148.123852 26.699353 147.910039 26.699353 C 147.709184 26.699353 147.558003 26.831096 147.458656 27.094583 L 142.754772 40.186843 C 142.655425 40.387698 142.603591 40.644705 142.603591 40.960025 C 142.603591 41.523714 142.912432 41.806638 143.525794 41.806638 Z M 234.210541 63.535644 C 234.309888 63.736499 234.359562 64.017263 234.359562 64.382257 C 234.359562 64.846598 234.21702 65.235349 233.927617 65.548509 C 233.651172 65.848711 233.288338 65.999892 232.836955 65.999892 L 217.88085 65.999892 C 216.800987 65.999892 216.105555 65.45996 215.792395 64.382257 L 208.548673 44.495497 C 208.397492 44.082989 208.140485 43.774149 207.777651 43.573294 C 207.425616 43.374599 206.885684 43.273092 206.160016 43.273092 L 202.622384 43.273092 C 202.309224 43.273092 202.075974 43.374599 201.926952 43.573294 C 201.775772 43.774149 201.700181 43.957725 201.700181 44.119705 L 201.700181 63.760255 C 201.700181 64.58959 201.492848 65.172716 201.08034 65.511793 C 200.665672 65.837912 200.026393 65.999892 199.160343 65.999892 L 186.197666 65.999892 C 185.433123 65.999892 184.90615 65.848711 184.616746 65.548509 C 184.342461 65.235349 184.204239 64.745091 184.204239 64.082055 L 184.204239 10.594274 C 184.204239 9.415063 184.692337 8.825458 185.670693 8.825458 L 211.408151 8.825458 C 218.859206 8.825458 224.634315 10.248718 228.735635 13.097397 C 232.849913 15.943916 234.905973 19.963166 234.905973 25.155148 C 234.905973 28.705738 233.966492 31.865418 232.08321 34.638506 C 230.215047 37.409435 227.793994 39.359668 224.822211 40.489205 C 224.50905 40.651184 224.35139 40.908192 224.35139 41.260227 C 224.35139 41.411408 224.401064 41.642499 224.502571 41.955659 Z M 210.712719 31.779029 C 212.669431 31.779029 214.17476 31.282292 215.226547 30.290977 C 216.280493 29.288864 216.807466 27.934716 216.807466 26.228532 C 216.807466 24.334452 216.174667 22.861519 214.906907 21.807573 C 213.652106 20.753626 212.097103 20.226653 210.241899 20.226653 L 203.468997 20.226653 C 202.803801 20.226653 202.33946 20.345438 202.075974 20.585168 C 201.825445 20.809779 201.700181 21.205009 201.700181 21.768698 L 201.700181 30.161394 C 201.700181 30.725082 201.78873 31.13759 201.963668 31.401077 C 202.138606 31.653765 202.484162 31.779029 202.998177 31.779029 Z M 210.712719 31.779029 " stroke="#000000" stroke-width="2.890012" stroke-opacity="1" stroke-miterlimit="4"/><g fill="#000000" fill-opacity="1"><g transform="translate(84.502934, 238.332397)"><g><path d="M 3.90625 -100.296875 C 3.90625 -101.234375 4.207031 -102.003906 4.8125 -102.609375 C 5.414062 -103.210938 6.273438 -103.515625 7.390625 -103.515625 L 90.8125 -103.515625 C 91.925781 -103.515625 92.785156 -103.210938 93.390625 -102.609375 C 93.992188 -102.003906 94.296875 -101.234375 94.296875 -100.296875 L 94.296875 -83.703125 C 94.296875 -81.929688 93.273438 -81.046875 91.234375 -81.046875 L 66.546875 -81.046875 C 65.429688 -81.046875 64.875 -80.582031 64.875 -79.65625 L 64.875 -3.0625 C 64.875 -2.039062 64.640625 -1.273438 64.171875 -0.765625 C 63.703125 -0.253906 63.050781 0 62.21875 0 L 35.71875 0 C 34.039062 0 33.203125 -0.929688 33.203125 -2.796875 L 33.203125 -79.09375 C 33.203125 -80.394531 32.691406 -81.046875 31.671875 -81.046875 L 7.109375 -81.046875 C 4.972656 -81.046875 3.90625 -81.929688 3.90625 -83.703125 Z M 3.90625 -100.296875 "/></g></g></g><g fill="#000000" fill-opacity="1"><g transform="translate(182.707022, 238.332397)"><g><path d="M 41.15625 -41.4375 C 40.5 -41.4375 39.960938 -41.222656 39.546875 -40.796875 C 39.128906 -40.378906 38.921875 -39.894531 38.921875 -39.34375 L 38.921875 -4.046875 C 38.921875 -2.554688 38.546875 -1.507812 37.796875 -0.90625 C 37.054688 -0.300781 35.894531 0 34.3125 0 L 11.015625 0 C 9.617188 0 8.640625 -0.273438 8.078125 -0.828125 C 7.523438 -1.390625 7.25 -2.273438 7.25 -3.484375 L 7.25 -100.296875 C 7.25 -101.316406 7.484375 -102.109375 7.953125 -102.671875 C 8.421875 -103.234375 9.070312 -103.515625 9.90625 -103.515625 L 36.40625 -103.515625 C 37.15625 -103.515625 37.757812 -103.253906 38.21875 -102.734375 C 38.6875 -102.222656 38.921875 -101.503906 38.921875 -100.578125 L 38.921875 -68.21875 C 38.921875 -66.351562 39.757812 -65.421875 41.4375 -65.421875 L 64.875 -65.421875 C 66.539062 -65.421875 67.375 -66.351562 67.375 -68.21875 L 67.375 -100.578125 C 67.375 -101.503906 67.609375 -102.222656 68.078125 -102.734375 C 68.546875 -103.253906 69.148438 -103.515625 69.890625 -103.515625 L 96.390625 -103.515625 C 97.234375 -103.515625 97.882812 -103.234375 98.34375 -102.671875 C 98.8125 -102.109375 99.046875 -101.316406 99.046875 -100.296875 L 99.046875 -3.484375 C 99.046875 -2.273438 98.765625 -1.390625 98.203125 -0.828125 C 97.648438 -0.273438 96.675781 0 95.28125 0 L 71.984375 0 C 70.398438 0 69.234375 -0.300781 68.484375 -0.90625 C 67.742188 -1.507812 67.375 -2.554688 67.375 -4.046875 L 67.375 -39.34375 C 67.375 -39.894531 67.164062 -40.378906 66.75 -40.796875 C 66.332031 -41.222656 65.796875 -41.4375 65.140625 -41.4375 Z M 41.15625 -41.4375 "/></g></g></g><g fill="#000000" fill-opacity="1"><g transform="translate(289.001782, 238.332397)"><g><path d="M 7.25 -100.296875 C 7.25 -102.441406 8.132812 -103.515625 9.90625 -103.515625 L 85.234375 -103.515625 C 86.910156 -103.515625 87.75 -102.535156 87.75 -100.578125 L 87.609375 -84.390625 C 87.609375 -81.878906 86.398438 -80.625 83.984375 -80.625 L 42.125 -80.625 C 39.988281 -80.625 38.921875 -79.742188 38.921875 -77.984375 L 38.921875 -66.125 C 38.921875 -65.195312 39.148438 -64.472656 39.609375 -63.953125 C 40.078125 -63.441406 40.6875 -63.1875 41.4375 -63.1875 L 66.546875 -63.1875 C 68.492188 -63.1875 69.46875 -62.257812 69.46875 -60.40625 L 69.46875 -43.109375 C 69.46875 -41.523438 68.628906 -40.734375 66.953125 -40.734375 L 41.15625 -40.734375 C 40.5 -40.734375 39.960938 -40.546875 39.546875 -40.171875 C 39.128906 -39.804688 38.921875 -39.34375 38.921875 -38.78125 L 38.921875 -24.828125 C 38.921875 -24.085938 39.035156 -23.578125 39.265625 -23.296875 C 39.503906 -23.015625 39.945312 -22.875 40.59375 -22.875 L 85.9375 -22.875 C 87.976562 -22.875 89 -21.992188 89 -20.234375 L 89 -3.0625 C 89 -2.132812 88.71875 -1.390625 88.15625 -0.828125 C 87.601562 -0.273438 86.769531 0 85.65625 0 L 11.015625 0 C 9.617188 0 8.640625 -0.273438 8.078125 -0.828125 C 7.523438 -1.390625 7.25 -2.273438 7.25 -3.484375 Z M 7.25 -100.296875 "/></g></g></g><g clip-path="url(#f2031f45b9)"><path fill="#000000" d="M 904.890625 123.125 L 902.765625 138.574219 L 900.828125 140.929688 L 900.46875 141.257812 L 899.601562 142.265625 L 898.796875 143.425781 L 898.054688 144.71875 L 897.371094 146.148438 L 896.773438 147.6875 L 896.242188 149.34375 L 895.796875 151.089844 L 895.453125 152.9375 L 895.1875 154.859375 L 895.035156 156.859375 L 894.972656 158.910156 L 895.035156 160.949219 L 895.1875 162.953125 L 895.453125 164.871094 L 895.796875 166.71875 L 896.242188 168.46875 L 896.773438 170.121094 L 897.371094 171.664062 L 898.054688 173.097656 L 898.796875 174.386719 L 899.601562 175.546875 L 900.46875 176.554688 L 901.386719 177.394531 L 902.355469 178.074219 L 902.847656 178.339844 L 903.359375 178.570312 L 903.882812 178.75 L 904.398438 178.875 L 904.929688 178.949219 L 905.476562 178.976562 L 906.011719 178.949219 L 906.542969 178.875 L 907.070312 178.75 L 907.585938 178.570312 L 908.097656 178.339844 L 908.59375 178.074219 L 909.558594 177.394531 L 910.472656 176.554688 L 911.34375 175.546875 L 912.148438 174.386719 L 912.902344 173.097656 L 913.574219 171.664062 L 914.179688 170.121094 L 914.710938 168.46875 L 915.148438 166.71875 L 915.5 164.871094 L 915.757812 162.953125 L 915.882812 161.351562 L 915.71875 161.378906 C 916 155.652344 915.339844 150.730469 912.890625 144.847656 L 911.820312 142.953125 L 911.34375 142.265625 L 910.472656 141.257812 L 909.558594 140.417969 L 908.59375 139.734375 L 908.097656 139.46875 L 907.710938 139.296875 L 906.875 137.546875 Z M 930.382812 124.292969 L 927.175781 140.636719 L 926.6875 140.902344 L 925.714844 141.585938 L 924.800781 142.425781 L 923.929688 143.433594 L 923.460938 144.117188 L 922.382812 146.015625 C 920.539062 151.324219 919.414062 156.792969 919.554688 162.542969 L 919.390625 162.519531 L 919.515625 164.121094 L 919.773438 166.039062 L 920.125 167.886719 L 920.570312 169.636719 L 921.101562 171.289062 L 921.699219 172.832031 L 922.378906 174.265625 L 923.128906 175.554688 L 923.929688 176.714844 L 924.800781 177.722656 L 925.714844 178.5625 L 926.6875 179.242188 L 927.175781 179.507812 L 927.6875 179.734375 L 928.207031 179.917969 L 928.730469 180.042969 L 929.261719 180.117188 L 929.800781 180.144531 L 930.34375 180.117188 L 930.875 180.042969 L 931.398438 179.917969 L 931.917969 179.734375 L 932.429688 179.507812 L 932.917969 179.242188 L 933.886719 178.5625 L 934.804688 177.722656 L 935.675781 176.714844 L 936.476562 175.554688 L 937.222656 174.265625 L 937.90625 172.832031 L 938.503906 171.289062 L 939.035156 169.636719 L 939.476562 167.886719 L 939.828125 166.039062 L 940.089844 164.121094 L 940.242188 162.117188 L 940.300781 160.070312 L 940.242188 158.027344 L 940.089844 156.027344 L 939.828125 154.105469 L 939.476562 152.257812 L 939.035156 150.511719 L 938.503906 148.855469 L 937.90625 147.316406 L 937.222656 145.886719 L 936.476562 144.59375 L 935.675781 143.433594 L 934.804688 142.425781 L 934.445312 142.097656 L 932.507812 139.742188 Z M 877.40625 152.792969 L 877.382812 152.804688 L 877.347656 152.804688 L 877.320312 152.8125 L 877.175781 152.8125 L 877.117188 152.824219 L 877.0625 152.832031 L 876.941406 152.851562 L 876.917969 152.859375 L 876.875 152.878906 L 876.816406 152.898438 L 876.765625 152.910156 L 876.703125 152.933594 L 876.644531 152.957031 L 876.585938 152.992188 L 876.480469 153.039062 L 876.371094 153.117188 L 876.265625 153.179688 L 876.046875 153.339844 L 875.925781 153.445312 L 875.820312 153.546875 L 875.621094 153.753906 L 875.222656 154.265625 L 874.839844 154.878906 L 874.492188 155.582031 L 874.160156 156.375 L 873.875 157.234375 L 873.605469 158.175781 L 873.1875 160.25 L 872.921875 162.558594 L 872.820312 165.007812 L 872.921875 167.460938 L 873.1875 169.769531 L 873.605469 171.84375 L 873.875 172.785156 L 874.160156 173.644531 L 874.492188 174.441406 L 874.578125 174.613281 L 874.566406 174.707031 L 874.535156 176.082031 L 874.585938 177.515625 L 874.746094 178.996094 L 875.003906 180.542969 L 875.371094 182.105469 L 875.835938 183.707031 L 876.40625 185.320312 L 877.082031 186.929688 L 877.847656 188.503906 L 878.675781 189.988281 L 879.550781 191.382812 L 880.488281 192.679688 L 881.457031 193.871094 L 882.460938 194.953125 L 883.496094 195.921875 L 884.539062 196.773438 L 885.585938 197.488281 L 886.640625 198.070312 L 887.683594 198.523438 L 888.71875 198.824219 L 889.730469 198.984375 L 890.71875 198.96875 L 891.1875 198.910156 L 891.652344 198.808594 L 892.105469 198.664062 L 892.550781 198.476562 L 892.976562 198.25 L 893.375 197.980469 L 893.75 197.675781 L 894.105469 197.335938 L 894.734375 196.566406 L 895.273438 195.667969 L 895.710938 194.660156 L 896.054688 193.539062 L 896.300781 192.324219 L 896.441406 191.023438 L 896.480469 189.648438 L 896.425781 188.214844 L 896.269531 186.734375 L 896.007812 185.1875 L 895.644531 183.625 L 895.179688 182.023438 L 894.609375 180.410156 L 893.929688 178.800781 L 893.167969 177.226562 L 892.351562 175.742188 L 891.460938 174.347656 L 890.53125 173.050781 L 889.554688 171.859375 L 888.5625 170.777344 L 887.53125 169.808594 L 886.488281 168.96875 L 885.433594 168.242188 L 884.378906 167.660156 L 883.328125 167.207031 L 882.292969 166.90625 L 881.277344 166.746094 L 880.300781 166.761719 L 879.824219 166.820312 L 879.359375 166.921875 L 879.027344 167.027344 L 879.019531 166.996094 L 878.570312 165.742188 L 878.152344 164.425781 L 877.804688 163.050781 L 877.519531 161.617188 L 877.300781 160.171875 L 877.175781 158.75 L 877.117188 157.375 L 877.117188 156.035156 L 877.203125 154.753906 L 877.363281 153.53125 L 877.402344 153.34375 L 877.433594 153.160156 L 877.496094 152.804688 L 877.488281 152.804688 L 877.472656 152.792969 Z M 956.5625 152.8125 L 956.550781 152.824219 L 956.542969 152.824219 L 956.605469 153.179688 L 956.636719 153.367188 L 956.675781 153.550781 L 956.835938 154.773438 L 956.921875 156.054688 L 956.921875 157.394531 L 956.863281 158.769531 L 956.738281 160.191406 L 956.519531 161.636719 L 956.234375 163.070312 L 955.886719 164.445312 L 955.46875 165.761719 L 955.019531 167.015625 L 955.011719 167.046875 L 954.679688 166.941406 L 954.214844 166.839844 L 953.738281 166.78125 L 952.761719 166.769531 L 951.746094 166.929688 L 950.710938 167.226562 L 949.660156 167.683594 L 948.605469 168.261719 L 947.550781 168.988281 L 946.507812 169.828125 L 945.476562 170.796875 L 944.484375 171.878906 L 943.507812 173.070312 L 942.578125 174.367188 L 941.6875 175.761719 L 940.871094 177.25 L 940.109375 178.824219 L 939.429688 180.429688 L 938.859375 182.042969 L 938.394531 183.644531 L 938.03125 185.207031 L 937.769531 186.753906 L 937.613281 188.234375 L 937.558594 189.667969 L 937.597656 191.042969 L 937.738281 192.34375 L 937.984375 193.558594 L 938.328125 194.679688 L 938.765625 195.6875 L 939.304688 196.585938 L 939.933594 197.355469 L 940.285156 197.695312 L 940.664062 198 L 941.0625 198.269531 L 941.488281 198.496094 L 941.933594 198.683594 L 942.382812 198.828125 L 942.847656 198.929688 L 943.320312 198.988281 L 944.308594 199.003906 L 945.320312 198.84375 L 946.355469 198.542969 L 947.398438 198.089844 L 948.453125 197.507812 L 949.5 196.792969 L 950.542969 195.941406 L 951.578125 194.972656 L 952.582031 193.890625 L 953.550781 192.699219 L 954.488281 191.402344 L 955.363281 190.011719 L 956.191406 188.523438 L 956.957031 186.949219 L 957.632812 185.339844 L 958.203125 183.726562 L 958.667969 182.125 L 959.035156 180.5625 L 959.292969 179.015625 L 959.453125 177.535156 L 959.503906 176.101562 L 959.472656 174.726562 L 959.460938 174.632812 L 959.546875 174.460938 L 959.878906 173.664062 L 960.164062 172.804688 L 960.433594 171.863281 L 960.851562 169.789062 L 961.117188 167.480469 L 961.21875 165.027344 L 961.117188 162.578125 L 960.851562 160.269531 L 960.433594 158.195312 L 960.164062 157.253906 L 959.878906 156.394531 L 959.546875 155.601562 L 959.199219 154.898438 L 958.816406 154.285156 L 958.417969 153.773438 L 958.21875 153.566406 L 958.113281 153.464844 L 957.992188 153.359375 L 957.773438 153.199219 L 957.667969 153.140625 L 957.613281 153.097656 L 957.558594 153.058594 L 957.453125 153.011719 L 957.394531 152.980469 L 957.335938 152.953125 L 957.273438 152.933594 L 957.222656 152.917969 L 957.164062 152.898438 L 957.121094 152.878906 L 957.097656 152.871094 L 956.976562 152.851562 L 956.921875 152.84375 L 956.863281 152.832031 L 956.71875 152.832031 L 956.691406 152.824219 L 956.65625 152.824219 L 956.632812 152.8125 Z M 916.542969 186.527344 L 915.148438 186.609375 L 913.800781 186.820312 L 912.492188 187.179688 L 911.238281 187.675781 L 910.050781 188.289062 L 908.921875 189.007812 C 905.242188 193.023438 904.113281 197.035156 902.289062 201.050781 L 901.503906 202.164062 L 900.621094 203.191406 L 899.644531 204.132812 L 898.605469 204.972656 L 897.476562 205.695312 L 896.289062 206.308594 C 891.957031 207.402344 889.234375 209.035156 886.875 210.789062 L 885.898438 211.730469 L 885.015625 212.757812 L 884.238281 213.878906 L 883.191406 215.894531 L 882.976562 216.355469 L 882.519531 217.6875 L 882.1875 219.082031 L 881.976562 220.523438 L 881.910156 222.011719 L 881.976562 223.492188 L 882.1875 224.941406 L 882.519531 226.335938 L 882.976562 227.667969 L 883.546875 228.9375 L 884.238281 230.144531 L 885.015625 231.257812 L 885.898438 232.285156 L 886.875 233.226562 L 887.917969 234.066406 L 889.042969 234.792969 L 890.234375 235.398438 L 891.488281 235.902344 C 893.957031 237.167969 896.09375 237.191406 898.785156 236.132812 L 898.796875 236.113281 L 899.582031 235.902344 L 900.835938 235.398438 L 902.023438 234.792969 L 903.15625 234.066406 C 910.007812 229.632812 917.570312 226.957031 929.367188 234.640625 L 930.496094 235.367188 C 934.257812 237.890625 938.21875 237.695312 942.292969 235.980469 L 943.472656 235.367188 L 944.609375 234.640625 L 945.652344 233.800781 L 946.628906 232.859375 L 947.503906 231.832031 L 948.289062 230.71875 L 948.972656 229.507812 L 949.542969 228.242188 L 950.007812 226.90625 L 950.332031 225.511719 L 950.542969 224.066406 L 950.617188 222.585938 L 950.542969 221.097656 L 950.332031 219.65625 L 950.007812 218.261719 L 949.542969 216.929688 L 948.972656 215.660156 L 948.289062 214.453125 L 947.503906 213.332031 L 946.628906 212.304688 L 945.652344 211.363281 L 944.609375 210.523438 L 943.472656 209.804688 L 939.179688 208.550781 L 937.925781 208.046875 L 936.734375 207.433594 L 935.609375 206.714844 L 934.566406 205.875 L 933.589844 204.933594 L 932.707031 203.90625 L 931.929688 202.785156 L 931.238281 201.585938 L 927.839844 192.9375 L 927.058594 191.816406 L 926.179688 190.789062 L 925.207031 189.851562 L 924.164062 189.007812 L 923.035156 188.289062 L 921.847656 187.675781 L 920.589844 187.179688 L 919.285156 186.820312 L 917.929688 186.609375 Z M 916.542969 186.527344 " fill-opacity="1" fill-rule="evenodd"/></g><path stroke-linecap="butt" transform="matrix(0.75, -0.000000000000000015, 0.000000000000000015, 0.75, 0.00001242, 92.473273)" fill="none" stroke-linejoin="miter" d="M -0.00001656 1.999178 L 1380.000074 1.999178 " stroke="#000000" stroke-width="4" stroke-opacity="1" stroke-miterlimit="4"/><path stroke-linecap="butt" transform="matrix(0.750078, 0.00166518, -0.001665, 0.749998, -43.777888, 277.084405)" fill="none" stroke-linejoin="miter" d="M -0.0000382466 2.002048 L 1466.857824 2.000489 " stroke="#000000" stroke-width="4" stroke-opacity="1" stroke-miterlimit="4"/></svg>