<svg xmlns="http://www.w3.org/2000/svg" xmlns:xlink="http://www.w3.org/1999/xlink" width="1080" zoomAndPan="magnify" viewBox="0 0 810 809.999993" height="1080" preserveAspectRatio="xMidYMid meet" version="1.0"><defs><clipPath id="116c52f49c"><path d="M 109 22.871094 L 701.351562 22.871094 L 701.351562 784 L 109 784 Z M 109 22.871094 " clip-rule="nonzero"/></clipPath></defs><g clip-path="url(#116c52f49c)"><path fill="#000000" d="M 323.984375 22.84375 L 309.761719 125.746094 L 296.78125 141.429688 L 294.382812 143.605469 L 288.558594 150.316406 L 283.183594 158.046875 L 278.203125 166.664062 L 273.625 176.175781 L 269.625 186.4375 L 266.070312 197.457031 L 263.09375 209.097656 L 260.78125 221.402344 L 259.003906 234.199219 L 257.980469 247.527344 L 257.582031 261.167969 L 257.980469 274.765625 L 259.003906 288.09375 L 260.78125 300.890625 L 263.09375 313.195312 L 266.070312 324.835938 L 269.625 335.855469 L 273.625 346.121094 L 278.203125 355.671875 L 283.183594 364.246094 L 288.558594 371.976562 L 294.382812 378.6875 L 300.515625 384.285156 L 307.003906 388.816406 L 310.292969 390.59375 L 313.714844 392.105469 L 317.226562 393.304688 L 320.695312 394.148438 L 324.25 394.636719 L 327.894531 394.816406 L 331.496094 394.636719 L 335.050781 394.148438 L 338.5625 393.304688 L 342.027344 392.105469 L 345.449219 390.59375 L 348.785156 388.816406 L 355.230469 384.285156 L 361.363281 378.6875 L 367.183594 371.976562 L 372.5625 364.246094 L 377.628906 355.671875 L 382.121094 346.121094 L 386.164062 335.855469 L 389.71875 324.835938 L 392.652344 313.195312 L 395.007812 300.890625 L 396.742188 288.09375 L 397.585938 277.429688 L 396.476562 277.609375 C 398.355469 239.488281 393.941406 206.691406 377.542969 167.507812 L 370.386719 154.890625 L 367.183594 150.3125 L 361.363281 143.605469 L 355.230469 138.007812 L 348.785156 133.476562 L 345.449219 131.699219 L 342.875 130.542969 L 337.273438 118.902344 Z M 494.65625 30.621094 L 473.191406 139.476562 L 469.902344 141.253906 L 463.410156 145.785156 L 457.277344 151.382812 L 451.457031 158.09375 L 448.300781 162.667969 L 441.101562 175.285156 C 428.738281 210.644531 421.214844 247.070312 422.164062 285.386719 L 421.054688 285.207031 L 421.898438 295.871094 L 423.632812 308.667969 L 425.988281 320.972656 L 428.964844 332.617188 L 432.523438 343.632812 L 436.523438 353.898438 L 441.054688 363.449219 L 446.078125 372.023438 L 451.457031 379.757812 L 457.277344 386.464844 L 463.410156 392.0625 L 469.902344 396.59375 L 473.191406 398.371094 L 476.613281 399.882812 L 480.078125 401.082031 L 483.589844 401.925781 L 487.144531 402.414062 L 490.746094 402.59375 L 494.390625 402.414062 L 497.945312 401.925781 L 501.457031 401.082031 L 504.925781 399.882812 L 508.347656 398.371094 L 511.636719 396.59375 L 518.125 392.0625 L 524.257812 386.464844 L 530.082031 379.757812 L 535.457031 372.023438 L 540.4375 363.449219 L 545.015625 353.898438 L 549.015625 343.632812 L 552.570312 332.617188 L 555.546875 320.972656 L 557.902344 308.667969 L 559.636719 295.871094 L 560.660156 282.542969 L 561.058594 268.902344 L 560.660156 255.304688 L 559.636719 241.976562 L 557.902344 229.183594 L 555.546875 216.875 L 552.570312 205.234375 L 549.015625 194.214844 L 545.015625 183.953125 L 540.4375 174.445312 L 535.457031 165.824219 L 530.082031 158.09375 L 524.257812 151.382812 L 521.859375 149.207031 L 508.878906 133.523438 L 494.65625 30.625 Z M 139.976562 220.429688 L 139.796875 220.519531 L 139.578125 220.519531 L 139.398438 220.5625 L 138.421875 220.5625 L 138.019531 220.652344 L 137.664062 220.695312 L 136.863281 220.828125 L 136.6875 220.875 L 136.421875 221.007812 L 136.019531 221.140625 L 135.664062 221.230469 L 135.265625 221.363281 L 134.863281 221.539062 L 134.464844 221.761719 L 133.753906 222.074219 L 133.042969 222.605469 L 132.332031 223.007812 L 130.863281 224.074219 L 130.066406 224.785156 L 129.355469 225.449219 L 128.019531 226.828125 L 125.351562 230.25 L 122.777344 234.335938 L 120.464844 239 L 118.242188 244.289062 L 116.332031 250.019531 L 114.507812 256.285156 L 111.707031 270.101562 L 109.929688 285.476562 L 109.265625 301.78125 L 109.929688 318.132812 L 111.707031 333.503906 L 114.507812 347.324219 L 116.332031 353.585938 L 118.242188 359.320312 L 120.464844 364.605469 L 121.042969 365.761719 L 120.953125 366.382812 L 120.730469 375.535156 L 121.085938 385.089844 L 122.152344 394.953125 L 123.886719 405.261719 L 126.332031 415.65625 L 129.441406 426.320312 L 133.265625 437.074219 L 137.796875 447.78125 L 142.910156 458.265625 L 148.464844 468.171875 L 154.332031 477.460938 L 160.597656 486.078125 L 167.089844 494.03125 L 173.800781 501.230469 L 180.734375 507.671875 L 187.710938 513.359375 L 194.734375 518.113281 L 201.800781 521.980469 L 208.777344 525 L 215.710938 527 L 222.46875 528.066406 L 229.089844 527.976562 L 232.246094 527.578125 L 235.355469 526.910156 L 238.378906 525.933594 L 241.359375 524.6875 L 244.203125 523.179688 L 246.867188 521.402344 L 249.402344 519.359375 L 251.757812 517.089844 L 255.980469 511.980469 L 259.582031 505.984375 L 262.515625 499.273438 L 264.824219 491.8125 L 266.46875 483.722656 L 267.402344 475.058594 L 267.667969 465.90625 L 267.3125 456.355469 L 266.246094 446.492188 L 264.515625 436.183594 L 262.070312 425.785156 L 258.957031 415.125 L 255.136719 404.371094 L 250.601562 393.664062 L 245.492188 383.179688 L 240.023438 373.269531 L 234.070312 363.984375 L 227.847656 355.363281 L 221.3125 347.410156 L 214.644531 340.214844 L 207.757812 333.769531 L 200.777344 328.171875 L 193.710938 323.328125 L 186.644531 319.464844 L 179.621094 316.441406 L 172.6875 314.445312 L 165.886719 313.378906 L 159.355469 313.464844 L 156.15625 313.867188 L 153.042969 314.53125 L 150.820312 315.242188 L 150.777344 315.019531 L 147.753906 306.667969 L 144.953125 297.914062 L 142.644531 288.761719 L 140.734375 279.210938 L 139.265625 269.570312 L 138.421875 260.105469 L 138.019531 250.953125 L 138.019531 242.023438 L 138.597656 233.492188 L 139.664062 225.359375 L 139.933594 224.117188 L 140.15625 222.871094 L 140.554688 220.519531 L 140.507812 220.519531 L 140.421875 220.429688 Z M 669.945312 220.5625 L 669.855469 220.652344 L 669.8125 220.652344 L 670.214844 223.007812 L 670.433594 224.25 L 670.703125 225.492188 L 671.769531 233.625 L 672.347656 242.15625 L 672.347656 251.085938 L 671.945312 260.238281 L 671.101562 269.703125 L 669.636719 279.34375 L 667.722656 288.894531 L 665.414062 298.050781 L 662.613281 306.800781 L 659.589844 315.15625 L 659.546875 315.378906 L 657.324219 314.667969 L 654.210938 314 L 651.011719 313.601562 L 644.480469 313.511719 L 637.679688 314.578125 L 630.746094 316.578125 L 623.722656 319.597656 L 616.65625 323.464844 L 609.589844 328.304688 L 602.609375 333.90625 L 595.722656 340.347656 L 589.054688 347.542969 L 582.519531 355.496094 L 576.296875 364.117188 L 570.34375 373.402344 L 564.875 383.3125 L 559.765625 393.796875 L 555.230469 404.503906 L 551.410156 415.257812 L 548.296875 425.921875 L 545.851562 436.316406 L 544.121094 446.625 L 543.050781 456.488281 L 542.695312 466.039062 L 542.964844 475.195312 L 543.898438 483.859375 L 545.542969 491.945312 L 547.851562 499.410156 L 550.785156 506.117188 L 554.386719 512.117188 L 558.609375 517.226562 L 560.964844 519.492188 L 563.496094 521.535156 L 566.164062 523.3125 L 569.007812 524.824219 L 571.988281 526.066406 L 575.007812 527.042969 L 578.121094 527.710938 L 581.277344 528.109375 L 587.898438 528.199219 L 594.65625 527.132812 L 601.589844 525.132812 L 608.566406 522.113281 L 615.632812 518.246094 L 622.65625 513.492188 L 629.632812 507.804688 L 636.566406 501.363281 L 643.277344 494.167969 L 649.769531 486.210938 L 656.035156 477.59375 L 661.902344 468.308594 L 667.457031 458.398438 L 672.570312 447.914062 L 677.101562 437.207031 L 680.925781 426.453125 L 684.035156 415.789062 L 686.480469 405.394531 L 688.214844 395.085938 L 689.28125 385.222656 L 689.636719 375.667969 L 689.414062 366.515625 L 689.324219 365.894531 L 689.902344 364.738281 L 692.125 359.453125 L 694.039062 353.722656 L 695.859375 347.457031 L 698.660156 333.636719 L 700.4375 318.265625 L 701.105469 301.914062 L 700.4375 285.609375 L 698.660156 270.234375 L 695.859375 256.417969 L 694.039062 250.152344 L 692.125 244.421875 L 689.902344 239.136719 L 687.59375 234.46875 L 685.015625 230.382812 L 682.347656 226.960938 L 681.015625 225.582031 L 680.304688 224.917969 L 679.503906 224.207031 L 678.035156 223.140625 L 677.324219 222.742188 L 676.96875 222.472656 L 676.613281 222.207031 L 675.902344 221.894531 L 675.503906 221.675781 L 675.101562 221.496094 L 674.703125 221.363281 L 674.347656 221.273438 L 673.949219 221.140625 L 673.679688 221.007812 L 673.503906 220.964844 L 672.703125 220.828125 L 672.347656 220.785156 L 671.949219 220.695312 L 670.96875 220.695312 L 670.792969 220.652344 L 670.570312 220.652344 L 670.390625 220.5625 Z M 401.980469 445.113281 L 392.648438 445.648438 L 383.625 447.070312 L 374.871094 449.46875 L 366.46875 452.757812 L 358.515625 456.84375 L 350.957031 461.640625 C 326.335938 488.375 318.761719 515.105469 306.558594 541.839844 L 301.3125 549.261719 L 295.402344 556.101562 L 288.867188 562.367188 L 281.890625 567.964844 L 274.332031 572.765625 L 266.378906 576.851562 C 237.375 584.140625 219.148438 595.019531 203.351562 606.710938 L 196.820312 612.972656 L 190.90625 619.816406 L 185.707031 627.28125 L 178.683594 640.699219 L 177.261719 643.765625 L 174.195312 652.648438 L 171.972656 661.9375 L 170.550781 671.53125 L 170.105469 681.441406 L 170.550781 691.304688 L 171.972656 700.945312 L 174.195312 710.230469 L 177.261719 719.117188 L 181.085938 727.558594 L 185.707031 735.601562 L 190.90625 743.023438 L 196.820312 749.863281 L 203.351562 756.128906 L 210.332031 761.726562 L 217.886719 766.570312 L 225.84375 770.613281 L 234.242188 773.945312 C 250.773438 782.382812 265.089844 782.546875 283.089844 775.5 L 283.179688 775.367188 L 288.421875 773.945312 L 296.824219 770.613281 L 304.78125 766.570312 L 312.378906 761.726562 C 358.230469 732.199219 408.882812 714.375 487.855469 765.546875 L 495.410156 770.390625 C 520.59375 787.1875 547.117188 785.902344 574.390625 774.476562 L 582.304688 770.390625 L 589.90625 765.546875 L 596.882812 759.949219 L 603.414062 753.683594 L 609.28125 746.84375 L 614.527344 739.421875 L 619.105469 731.378906 L 622.929688 722.9375 L 626.039062 714.050781 L 628.21875 704.765625 L 629.640625 695.125 L 630.128906 685.261719 L 629.640625 675.351562 L 628.21875 665.757812 L 626.039062 656.46875 L 622.929688 647.585938 L 619.105469 639.140625 L 614.527344 631.101562 L 609.28125 623.636719 L 603.414062 616.792969 L 596.882812 610.527344 L 589.90625 604.929688 L 582.304688 600.132812 L 553.546875 591.777344 L 545.148438 588.445312 L 537.191406 584.359375 L 529.636719 579.5625 L 522.65625 573.964844 L 516.125 567.699219 L 510.214844 560.855469 L 505.011719 553.390625 L 500.390625 545.394531 L 477.632812 487.8125 L 472.390625 480.347656 L 466.523438 473.503906 L 459.988281 467.242188 L 453.011719 461.640625 L 445.453125 456.84375 L 437.5 452.757812 L 429.097656 449.46875 L 420.34375 447.070312 L 411.277344 445.648438 L 401.988281 445.113281 Z M 401.980469 445.113281 " fill-opacity="1" fill-rule="evenodd"/></g></svg>