<svg xmlns="http://www.w3.org/2000/svg" xmlns:xlink="http://www.w3.org/1999/xlink" width="1380" zoomAndPan="magnify" viewBox="0 0 1035 374.999991" height="500" preserveAspectRatio="xMidYMid meet" version="1.0"><defs><g/><clipPath id="6074c0e22b"><path d="M 907.601562 105.230469 L 1007.351562 105.230469 L 1007.351562 234 L 907.601562 234 Z M 907.601562 105.230469 " clip-rule="nonzero"/></clipPath></defs><path stroke-linecap="butt" transform="matrix(2.031432, 0, 0, 2.031432, 222.427205, 98.075802)" fill="none" stroke-linejoin="miter" d="M 92.214117 65.999079 C 91.698779 65.999079 91.271894 65.837555 90.933463 65.510661 C 90.608492 65.17223 90.445045 64.770343 90.445045 64.306923 L 90.445045 10.819406 C 90.445045 10.255995 90.620029 9.784883 90.971921 9.409916 C 91.33535 9.019567 91.79877 8.825353 92.364104 8.825353 L 115.335124 8.825353 C 123.349791 8.825353 129.420401 10.098316 133.546954 12.644242 C 137.685045 15.178631 139.754091 18.941755 139.754091 23.933616 C 139.754091 26.654526 139.008004 28.956243 137.51583 30.836844 C 136.035193 32.705907 133.421965 34.513438 129.670378 36.255589 C 129.570387 36.305585 129.520392 36.399807 129.520392 36.538256 C 129.520392 36.663245 129.570387 36.751699 129.670378 36.801694 C 133.83539 38.332326 136.788972 40.149471 138.531123 42.256975 C 140.275198 44.364478 141.146274 47.09308 141.146274 50.440857 C 141.146274 55.721154 139.127224 59.634265 135.089124 62.180191 C 131.062561 64.726116 124.89196 65.999079 116.57732 65.999079 Z M 116.57732 31.177198 C 118.369467 31.177198 119.805877 30.686857 120.884627 29.708099 C 121.963376 28.731263 122.503713 27.469838 122.503713 25.927668 C 122.503713 24.283584 121.882614 22.949089 120.640418 21.920335 C 119.411682 20.891581 117.875281 20.378165 116.031215 20.378165 L 109.710627 20.378165 C 109.045302 20.378165 108.581882 20.497385 108.318444 20.733902 C 108.066544 20.960805 107.941555 21.355001 107.941555 21.920335 L 107.941555 29.46389 C 107.941555 30.090757 108.041546 30.536871 108.241528 30.800309 C 108.454971 31.050286 108.787633 31.177198 109.239516 31.177198 Z M 116.181202 54.448191 C 118.288705 54.448191 119.944326 53.859782 121.148065 52.679118 C 122.365263 51.48884 122.972901 50.096657 122.972901 48.502569 C 122.972901 46.910404 122.376801 45.598983 121.186523 44.572152 C 120.007782 43.543398 118.471381 43.02806 116.57732 43.02806 L 109.710627 43.02806 C 109.045302 43.02806 108.581882 43.16074 108.318444 43.424178 C 108.066544 43.674156 107.941555 44.081811 107.941555 44.647145 L 107.941555 52.736805 C 107.941555 53.363672 108.041546 53.809786 108.241528 54.071301 C 108.454971 54.323202 108.787633 54.448191 109.239516 54.448191 Z M 147.382254 10.594426 C 147.382254 9.415685 147.870671 8.825353 148.84943 8.825353 L 190.464934 8.825353 C 191.380236 8.825353 191.837888 9.36569 191.837888 10.444439 L 191.762894 19.380177 C 191.762894 20.77236 191.099492 21.468452 189.768842 21.468452 L 166.647836 21.468452 C 165.469095 21.468452 164.878764 21.951101 164.878764 22.916399 L 164.878764 29.46389 C 164.878764 29.979228 165.003752 30.379192 165.255653 30.667628 C 165.519091 30.956064 165.857522 31.100282 166.270947 31.100282 L 180.137013 31.100282 C 181.215762 31.100282 181.754175 31.609851 181.754175 32.625145 L 181.754175 42.181982 C 181.754175 43.060749 181.290755 43.499171 180.361992 43.499171 L 166.101731 43.499171 C 165.749839 43.499171 165.455635 43.604931 165.217195 43.818373 C 164.992215 44.020278 164.878764 44.270256 164.878764 44.572152 L 164.878764 52.284923 C 164.878764 52.698347 164.942219 52.981014 165.067208 53.131001 C 165.192197 53.28291 165.436406 53.357904 165.801758 53.357904 L 190.841823 53.357904 C 191.970568 53.357904 192.533979 53.846321 192.533979 54.82508 L 192.533979 64.306923 C 192.533979 64.820339 192.378224 65.235686 192.06479 65.54912 C 191.762894 65.849093 191.305243 65.999079 190.691836 65.999079 L 149.470528 65.999079 C 148.693675 65.999079 148.14757 65.849093 147.834136 65.54912 C 147.53224 65.235686 147.382254 64.745345 147.382254 64.081943 Z M 198.385378 65.999079 C 197.970031 65.999079 197.6316 65.862553 197.368162 65.585655 C 197.118184 65.297219 196.993195 64.895332 196.993195 64.381916 C 196.993195 64.018487 197.073957 63.605063 197.237404 63.13972 L 215.881888 10.594426 C 216.131866 9.929101 216.414533 9.471449 216.727966 9.221472 C 217.0414 8.958034 217.529818 8.825353 218.195143 8.825353 L 233.378398 8.825353 C 233.991805 8.825353 234.543678 9.019567 235.034019 9.409916 C 235.522437 9.784883 235.891635 10.280992 236.143535 10.894399 L 254.63611 63.385852 C 254.738024 63.799276 254.788019 64.106941 254.788019 64.306923 C 254.788019 64.770343 254.688028 65.17223 254.486123 65.510661 C 254.286141 65.837555 253.978476 65.999079 253.565052 65.999079 L 238.45679 65.999079 C 237.579945 65.999079 237.014611 65.560657 236.764633 64.683812 L 233.753365 55.821145 C 233.603378 55.471176 233.45916 55.232736 233.320711 55.107747 C 233.195722 54.969298 232.957282 54.900073 232.607313 54.900073 L 216.256855 54.900073 C 215.643448 54.900073 215.26079 55.18274 215.110803 55.746151 L 211.949548 64.853028 C 211.636115 65.618344 211.020785 65.999079 210.105482 65.999079 Z M 228.749967 41.805092 C 229.313378 41.805092 229.596045 41.549346 229.596045 41.034007 C 229.596045 40.934016 229.546049 40.676347 229.446058 40.262923 L 224.817626 27.092948 C 224.717635 26.82951 224.559957 26.698753 224.346515 26.698753 C 224.146533 26.698753 223.996546 26.82951 223.896555 27.092948 L 219.19313 40.187929 C 219.091216 40.387911 219.041221 40.645581 219.041221 40.959014 C 219.041221 41.524348 219.348885 41.805092 219.964215 41.805092 Z M 310.648401 63.535838 C 310.748392 63.73582 310.798388 64.018487 310.798388 64.381916 C 310.798388 64.845336 310.65417 65.235686 310.365734 65.54912 C 310.088836 65.849093 309.725407 65.999079 309.273524 65.999079 L 294.317171 65.999079 C 293.238422 65.999079 292.54233 65.460666 292.228897 64.381916 L 284.985315 44.495236 C 284.835328 44.081811 284.577659 43.774147 284.21423 43.574165 C 283.864261 43.374182 283.323925 43.274191 282.597067 43.274191 L 279.058923 43.274191 C 278.745489 43.274191 278.51474 43.374182 278.362831 43.574165 C 278.212844 43.774147 278.137851 43.956823 278.137851 44.120269 L 278.137851 63.760818 C 278.137851 64.58959 277.930177 65.17223 277.516753 65.510661 C 277.103328 65.837555 276.463001 65.999079 275.597694 65.999079 L 262.635393 65.999079 C 261.870077 65.999079 261.343201 65.849093 261.054766 65.54912 C 260.77979 65.235686 260.641341 64.745345 260.641341 64.081943 L 260.641341 10.594426 C 260.641341 9.415685 261.129759 8.825353 262.108517 8.825353 L 287.844674 8.825353 C 295.29593 8.825353 301.072336 10.250226 305.171968 13.096125 C 309.286985 15.943947 311.344493 19.962818 311.344493 25.156583 C 311.344493 28.706265 310.402269 31.865598 308.521668 34.638426 C 306.652605 37.409332 304.231668 39.36108 301.258857 40.489825 C 300.945424 40.651349 300.789669 40.909019 300.789669 41.26091 C 300.789669 41.410897 300.839664 41.643568 300.939655 41.957002 Z M 287.148583 31.779067 C 289.1061 31.779067 290.611734 31.282958 291.665486 30.292662 C 292.719238 29.288905 293.244191 27.933258 293.244191 26.227641 C 293.244191 24.33358 292.611555 22.860635 291.344361 21.806883 C 290.090627 20.753131 288.534997 20.226256 286.679394 20.226256 L 279.906923 20.226256 C 279.241598 20.226256 278.778178 20.345476 278.51474 20.583916 C 278.26284 20.810819 278.137851 21.205014 278.137851 21.770348 L 278.137851 30.159981 C 278.137851 30.725315 278.226305 31.13874 278.401289 31.402178 C 278.576273 31.652155 278.922396 31.779067 279.435812 31.779067 Z M 287.148583 31.779067 " stroke="#000000" stroke-width="2.890012" stroke-opacity="1" stroke-miterlimit="4"/><g fill="#000000" fill-opacity="1"><g transform="translate(22.274388, 234.620585)"><g><path d="M 4.390625 -112.65625 C 4.390625 -113.695312 4.726562 -114.554688 5.40625 -115.234375 C 6.082031 -115.921875 7.046875 -116.265625 8.296875 -116.265625 L 102 -116.265625 C 103.257812 -116.265625 104.226562 -115.921875 104.90625 -115.234375 C 105.582031 -114.554688 105.921875 -113.695312 105.921875 -112.65625 L 105.921875 -94.015625 C 105.921875 -92.023438 104.769531 -91.03125 102.46875 -91.03125 L 74.734375 -91.03125 C 73.484375 -91.03125 72.859375 -90.507812 72.859375 -89.46875 L 72.859375 -3.453125 C 72.859375 -2.296875 72.597656 -1.429688 72.078125 -0.859375 C 71.554688 -0.285156 70.820312 0 69.875 0 L 40.109375 0 C 38.234375 0 37.296875 -1.046875 37.296875 -3.140625 L 37.296875 -88.84375 C 37.296875 -90.300781 36.71875 -91.03125 35.5625 -91.03125 L 7.984375 -91.03125 C 5.585938 -91.03125 4.390625 -92.023438 4.390625 -94.015625 Z M 4.390625 -112.65625 "/></g></g></g><g fill="#000000" fill-opacity="1"><g transform="translate(132.573119, 234.620585)"><g><path d="M 46.21875 -46.53125 C 45.488281 -46.53125 44.890625 -46.296875 44.421875 -45.828125 C 43.953125 -45.359375 43.71875 -44.8125 43.71875 -44.1875 L 43.71875 -4.546875 C 43.71875 -2.867188 43.296875 -1.691406 42.453125 -1.015625 C 41.617188 -0.335938 40.316406 0 38.546875 0 L 12.375 0 C 10.8125 0 9.710938 -0.3125 9.078125 -0.9375 C 8.453125 -1.5625 8.140625 -2.554688 8.140625 -3.921875 L 8.140625 -112.65625 C 8.140625 -113.800781 8.398438 -114.6875 8.921875 -115.3125 C 9.453125 -115.945312 10.1875 -116.265625 11.125 -116.265625 L 40.890625 -116.265625 C 41.734375 -116.265625 42.414062 -115.972656 42.9375 -115.390625 C 43.457031 -114.816406 43.71875 -114.007812 43.71875 -112.96875 L 43.71875 -76.625 C 43.71875 -74.53125 44.65625 -73.484375 46.53125 -73.484375 L 72.859375 -73.484375 C 74.742188 -73.484375 75.6875 -74.53125 75.6875 -76.625 L 75.6875 -112.96875 C 75.6875 -114.007812 75.945312 -114.816406 76.46875 -115.390625 C 76.988281 -115.972656 77.664062 -116.265625 78.5 -116.265625 L 108.265625 -116.265625 C 109.210938 -116.265625 109.945312 -115.945312 110.46875 -115.3125 C 110.988281 -114.6875 111.25 -113.800781 111.25 -112.65625 L 111.25 -3.921875 C 111.25 -2.554688 110.9375 -1.5625 110.3125 -0.9375 C 109.6875 -0.3125 108.585938 0 107.015625 0 L 80.84375 0 C 79.070312 0 77.769531 -0.335938 76.9375 -1.015625 C 76.101562 -1.691406 75.6875 -2.867188 75.6875 -4.546875 L 75.6875 -44.1875 C 75.6875 -44.8125 75.445312 -45.359375 74.96875 -45.828125 C 74.5 -46.296875 73.898438 -46.53125 73.171875 -46.53125 Z M 46.21875 -46.53125 "/></g></g></g><g fill="#000000" fill-opacity="1"><g transform="translate(251.958955, 234.620585)"><g><path d="M 8.140625 -112.65625 C 8.140625 -115.0625 9.132812 -116.265625 11.125 -116.265625 L 95.734375 -116.265625 C 97.617188 -116.265625 98.5625 -115.164062 98.5625 -112.96875 L 98.40625 -94.796875 C 98.40625 -91.972656 97.046875 -90.5625 94.328125 -90.5625 L 47.3125 -90.5625 C 44.914062 -90.5625 43.71875 -89.570312 43.71875 -87.59375 L 43.71875 -74.265625 C 43.71875 -73.222656 43.976562 -72.414062 44.5 -71.84375 C 45.019531 -71.269531 45.695312 -70.984375 46.53125 -70.984375 L 74.734375 -70.984375 C 76.929688 -70.984375 78.03125 -69.9375 78.03125 -67.84375 L 78.03125 -48.421875 C 78.03125 -46.640625 77.085938 -45.75 75.203125 -45.75 L 46.21875 -45.75 C 45.488281 -45.75 44.890625 -45.539062 44.421875 -45.125 C 43.953125 -44.707031 43.71875 -44.1875 43.71875 -43.5625 L 43.71875 -27.890625 C 43.71875 -27.054688 43.847656 -26.484375 44.109375 -26.171875 C 44.367188 -25.859375 44.863281 -25.703125 45.59375 -25.703125 L 96.515625 -25.703125 C 98.816406 -25.703125 99.96875 -24.707031 99.96875 -22.71875 L 99.96875 -3.453125 C 99.96875 -2.398438 99.65625 -1.5625 99.03125 -0.9375 C 98.40625 -0.3125 97.460938 0 96.203125 0 L 12.375 0 C 10.8125 0 9.710938 -0.3125 9.078125 -0.9375 C 8.453125 -1.5625 8.140625 -2.554688 8.140625 -3.921875 Z M 8.140625 -112.65625 "/></g></g></g><g clip-path="url(#6074c0e22b)"><path fill="#000000" d="M 943.820312 105.222656 L 941.425781 122.59375 L 939.242188 125.242188 L 938.839844 125.609375 L 937.859375 126.742188 L 936.953125 128.046875 L 936.113281 129.5 L 935.34375 131.105469 L 934.671875 132.835938 L 934.070312 134.699219 L 933.570312 136.664062 L 933.183594 138.738281 L 932.882812 140.898438 L 932.710938 143.148438 L 932.644531 145.453125 L 932.710938 147.746094 L 932.882812 149.996094 L 933.183594 152.15625 L 933.570312 154.234375 L 934.070312 156.199219 L 934.671875 158.058594 L 935.34375 159.789062 L 936.113281 161.402344 L 936.953125 162.851562 L 937.859375 164.15625 L 938.839844 165.289062 L 939.871094 166.234375 L 940.964844 166.996094 L 941.515625 167.296875 L 942.09375 167.554688 L 942.683594 167.753906 L 943.269531 167.898438 L 943.867188 167.980469 L 944.480469 168.011719 L 945.085938 167.980469 L 945.683594 167.898438 L 946.277344 167.753906 L 946.859375 167.554688 L 947.4375 167.296875 L 947.996094 166.996094 L 949.082031 166.234375 L 950.113281 165.289062 L 951.09375 164.15625 L 952 162.851562 L 952.851562 161.402344 L 953.609375 159.789062 L 954.289062 158.058594 L 954.886719 156.199219 L 955.382812 154.234375 L 955.777344 152.15625 L 956.070312 149.996094 L 956.214844 148.195312 L 956.027344 148.226562 C 956.34375 141.792969 955.597656 136.257812 952.839844 129.644531 L 951.632812 127.511719 L 951.09375 126.742188 L 950.113281 125.609375 L 949.082031 124.664062 L 947.996094 123.898438 L 947.4375 123.597656 L 947 123.402344 L 946.058594 121.4375 Z M 972.554688 106.535156 L 968.941406 124.910156 L 968.386719 125.210938 L 967.292969 125.976562 L 966.261719 126.921875 L 965.28125 128.054688 L 964.75 128.824219 L 963.539062 130.957031 C 961.457031 136.921875 960.191406 143.074219 960.351562 149.539062 L 960.164062 149.507812 L 960.304688 151.308594 L 960.597656 153.46875 L 960.996094 155.546875 L 961.496094 157.511719 L 962.09375 159.371094 L 962.769531 161.105469 L 963.53125 162.714844 L 964.375 164.164062 L 965.28125 165.46875 L 966.261719 166.601562 L 967.292969 167.546875 L 968.386719 168.3125 L 968.941406 168.609375 L 969.515625 168.867188 L 970.101562 169.066406 L 970.691406 169.210938 L 971.289062 169.292969 L 971.894531 169.324219 L 972.511719 169.292969 L 973.109375 169.210938 L 973.699219 169.066406 L 974.28125 168.867188 L 974.859375 168.609375 L 975.414062 168.3125 L 976.503906 167.546875 L 977.539062 166.601562 L 978.519531 165.46875 L 979.421875 164.164062 L 980.261719 162.714844 L 981.03125 161.105469 L 981.707031 159.371094 L 982.304688 157.511719 L 982.804688 155.546875 L 983.203125 153.46875 L 983.492188 151.308594 L 983.667969 149.058594 L 983.734375 146.757812 L 983.667969 144.460938 L 983.492188 142.210938 L 983.203125 140.050781 L 982.804688 137.976562 L 982.304688 136.011719 L 981.707031 134.152344 L 981.03125 132.417969 L 980.261719 130.8125 L 979.421875 129.359375 L 978.519531 128.054688 L 977.539062 126.921875 L 977.132812 126.554688 L 974.949219 123.90625 L 972.554688 106.539062 Z M 912.84375 138.574219 L 912.8125 138.589844 L 912.777344 138.589844 L 912.746094 138.597656 L 912.582031 138.597656 L 912.515625 138.613281 L 912.457031 138.621094 L 912.320312 138.644531 L 912.289062 138.648438 L 912.246094 138.671875 L 912.179688 138.695312 L 912.117188 138.710938 L 912.050781 138.734375 L 911.984375 138.761719 L 911.917969 138.800781 L 911.796875 138.851562 L 911.738281 138.898438 L 911.675781 138.941406 L 911.558594 139.011719 L 911.308594 139.191406 L 911.175781 139.308594 L 911.054688 139.421875 L 910.832031 139.65625 L 910.382812 140.234375 L 909.949219 140.921875 L 909.558594 141.710938 L 909.183594 142.601562 L 908.863281 143.570312 L 908.558594 144.628906 L 908.085938 146.960938 L 907.785156 149.554688 L 907.675781 152.308594 L 907.785156 155.066406 L 908.085938 157.660156 L 908.558594 159.992188 L 908.863281 161.050781 L 909.183594 162.019531 L 909.558594 162.910156 L 909.65625 163.105469 L 909.640625 163.210938 L 909.605469 164.757812 L 909.664062 166.367188 L 909.84375 168.035156 L 910.136719 169.773438 L 910.546875 171.527344 L 911.070312 173.328125 L 911.714844 175.144531 L 912.476562 176.949219 L 913.339844 178.71875 L 914.273438 180.394531 L 915.261719 181.960938 L 916.316406 183.414062 L 917.410156 184.757812 L 918.539062 185.972656 L 919.707031 187.058594 L 920.878906 188.019531 L 922.0625 188.824219 L 923.253906 189.476562 L 924.425781 189.984375 L 925.59375 190.320312 L 926.730469 190.503906 L 927.847656 190.488281 L 928.378906 190.417969 L 928.902344 190.308594 L 929.410156 190.140625 L 929.910156 189.933594 L 930.390625 189.675781 L 930.839844 189.378906 L 931.265625 189.03125 L 931.664062 188.648438 L 932.375 187.789062 L 932.980469 186.773438 L 933.472656 185.640625 L 933.863281 184.382812 L 934.140625 183.019531 L 934.296875 181.554688 L 934.339844 180.011719 L 934.28125 178.398438 L 934.101562 176.734375 L 933.808594 174.992188 L 933.398438 173.238281 L 932.875 171.4375 L 932.230469 169.625 L 931.46875 167.816406 L 930.609375 166.046875 L 929.6875 164.375 L 928.683594 162.804688 L 927.636719 161.351562 L 926.539062 160.007812 L 925.414062 158.792969 L 924.253906 157.707031 L 923.082031 156.761719 L 921.890625 155.945312 L 920.699219 155.292969 L 919.519531 154.78125 L 918.351562 154.445312 L 917.207031 154.265625 L 916.105469 154.28125 L 915.566406 154.347656 L 915.042969 154.460938 L 914.671875 154.578125 L 914.664062 154.542969 L 914.152344 153.132812 L 913.683594 151.65625 L 913.292969 150.109375 L 912.972656 148.496094 L 912.726562 146.871094 L 912.582031 145.273438 L 912.515625 143.726562 L 912.515625 142.21875 L 912.613281 140.78125 L 912.792969 139.40625 L 912.835938 139.199219 L 912.875 138.988281 L 912.941406 138.589844 L 912.933594 138.589844 L 912.917969 138.574219 Z M 1002.0625 138.597656 L 1002.050781 138.613281 L 1002.042969 138.613281 L 1002.109375 139.011719 L 1002.148438 139.21875 L 1002.191406 139.429688 L 1002.371094 140.800781 L 1002.46875 142.242188 L 1002.46875 143.75 L 1002.402344 145.292969 L 1002.257812 146.890625 L 1002.011719 148.519531 L 1001.691406 150.132812 L 1001.300781 151.675781 L 1000.828125 153.15625 L 1000.320312 154.5625 L 1000.3125 154.601562 L 999.941406 154.480469 L 999.414062 154.371094 L 998.878906 154.300781 L 997.777344 154.285156 L 996.632812 154.46875 L 995.464844 154.804688 L 994.28125 155.3125 L 993.09375 155.964844 L 991.902344 156.785156 L 990.730469 157.730469 L 989.570312 158.816406 L 988.445312 160.03125 L 987.347656 161.375 L 986.300781 162.828125 L 985.296875 164.394531 L 984.375 166.070312 L 983.515625 167.839844 L 982.753906 169.644531 L 982.109375 171.460938 L 981.585938 173.261719 L 981.171875 175.015625 L 980.882812 176.753906 L 980.703125 178.421875 L 980.640625 180.03125 L 980.6875 181.578125 L 980.84375 183.039062 L 981.121094 184.40625 L 981.511719 185.664062 L 982.003906 186.796875 L 982.609375 187.808594 L 983.320312 188.671875 L 983.71875 189.054688 L 984.144531 189.398438 L 984.59375 189.699219 L 985.070312 189.953125 L 985.574219 190.164062 L 986.082031 190.328125 L 986.605469 190.441406 L 987.136719 190.511719 L 988.253906 190.523438 L 989.390625 190.34375 L 990.554688 190.007812 L 991.730469 189.496094 L 992.921875 188.84375 L 994.101562 188.042969 L 995.277344 187.082031 L 996.445312 185.996094 L 997.574219 184.78125 L 998.667969 183.4375 L 999.722656 181.984375 L 1000.710938 180.414062 L 1001.644531 178.742188 L 1002.507812 176.972656 L 1003.269531 175.164062 L 1003.914062 173.351562 L 1004.4375 171.550781 L 1004.847656 169.796875 L 1005.140625 168.054688 L 1005.320312 166.390625 L 1005.378906 164.777344 L 1005.34375 163.234375 L 1005.328125 163.128906 L 1005.425781 162.933594 L 1005.796875 162.042969 L 1006.121094 161.074219 L 1006.425781 160.015625 L 1006.898438 157.683594 L 1007.199219 155.089844 L 1007.308594 152.328125 L 1007.199219 149.578125 L 1006.898438 146.980469 L 1006.425781 144.648438 L 1006.121094 143.59375 L 1005.796875 142.625 L 1005.425781 141.734375 L 1005.035156 140.945312 L 1004.601562 140.253906 L 1004.152344 139.679688 L 1003.929688 139.445312 L 1003.808594 139.332031 L 1003.671875 139.214844 L 1003.425781 139.03125 L 1003.308594 138.964844 L 1003.246094 138.921875 L 1003.1875 138.875 L 1003.066406 138.824219 L 1003 138.785156 L 1002.933594 138.753906 L 1002.867188 138.734375 L 1002.804688 138.71875 L 1002.738281 138.695312 L 1002.691406 138.671875 L 1002.664062 138.664062 L 1002.527344 138.644531 L 1002.46875 138.636719 L 1002.402344 138.621094 L 1002.238281 138.621094 L 1002.207031 138.613281 L 1002.167969 138.613281 L 1002.140625 138.597656 Z M 956.953125 176.5 L 955.382812 176.589844 L 953.863281 176.832031 L 952.386719 177.234375 L 950.972656 177.789062 L 949.636719 178.480469 L 948.363281 179.289062 C 944.21875 183.800781 942.941406 188.316406 940.886719 192.828125 L 940.003906 194.078125 L 939.011719 195.234375 L 937.910156 196.292969 L 936.734375 197.238281 L 935.464844 198.046875 L 934.125 198.738281 C 929.242188 199.96875 926.171875 201.804688 923.515625 203.777344 L 922.414062 204.835938 L 921.417969 205.988281 L 920.542969 207.25 L 919.359375 209.515625 L 919.121094 210.03125 L 918.605469 211.53125 L 918.230469 213.097656 L 917.992188 214.71875 L 917.917969 216.390625 L 917.992188 218.054688 L 918.230469 219.683594 L 918.605469 221.25 L 919.121094 222.75 L 919.765625 224.175781 L 920.542969 225.53125 L 921.417969 226.785156 L 922.414062 227.941406 L 923.515625 228.996094 L 924.6875 229.941406 L 925.960938 230.761719 L 927.300781 231.441406 L 928.714844 232.003906 C 931.496094 233.429688 933.90625 233.457031 936.9375 232.265625 L 936.953125 232.246094 L 937.835938 232.003906 L 939.25 231.441406 L 940.589844 230.761719 L 941.867188 229.941406 C 949.585938 224.957031 958.113281 221.949219 971.410156 230.585938 L 972.679688 231.40625 C 976.921875 234.242188 981.386719 234.023438 985.976562 232.09375 L 987.308594 231.40625 L 988.589844 230.585938 L 989.765625 229.640625 L 990.863281 228.585938 L 991.851562 227.429688 L 992.734375 226.175781 L 993.503906 224.820312 L 994.148438 223.394531 L 994.671875 221.894531 L 995.039062 220.328125 L 995.277344 218.699219 L 995.359375 217.035156 L 995.277344 215.363281 L 995.039062 213.742188 L 994.671875 212.175781 L 994.148438 210.675781 L 993.503906 209.25 L 992.734375 207.894531 L 991.851562 206.632812 L 990.863281 205.480469 L 989.765625 204.421875 L 988.589844 203.476562 L 987.308594 202.667969 L 982.46875 201.257812 L 981.054688 200.695312 L 979.714844 200.003906 L 978.445312 199.195312 L 977.269531 198.25 L 976.167969 197.191406 L 975.171875 196.035156 L 974.296875 194.777344 L 973.519531 193.425781 L 969.6875 183.707031 L 968.804688 182.449219 L 967.816406 181.292969 L 966.71875 180.234375 L 965.542969 179.289062 L 964.273438 178.480469 L 962.933594 177.789062 L 961.519531 177.234375 L 960.042969 176.832031 L 958.515625 176.589844 Z M 956.953125 176.5 " fill-opacity="1" fill-rule="evenodd"/></g></svg>